HIERARCHY
ROOT Hips
{
  OFFSET 54.7065 91.5514 35.627
  CHANNELS 6 Xposition Yposition Zposition Zrotation Xrotation Yrotation
  JOINT spine
  {
    OFFSET 0 6.84637 0.3937
    CHANNELS 3 Zrotation Xrotation Yrotation
    JOINT spine1
    {
      OFFSET 0 9.49621 0
      CHANNELS 3 Zrotation Xrotation Yrotation
      JOINT spine2
      {
        OFFSET 0 9.09909 0
        CHANNELS 3 Zrotation Xrotation Yrotation
        JOINT Neck
        {
          OFFSET 0 23.3612 1.11378
          CHANNELS 3 Zrotation Xrotation Yrotation
          JOINT Head
          {
            OFFSET 0 7.05802 0
            CHANNELS 3 Zrotation Xrotation Yrotation
            End Site
            {
              OFFSET 0 17.0844 -5.63418
            }
          }
        }
        JOINT RightShoulder
        {
          OFFSET -3.83136 9.82631 -0.533491
          CHANNELS 3 Zrotation Xrotation Yrotation
          JOINT RightArm
          {
            OFFSET 0 12.8881 0
            CHANNELS 3 Zrotation Xrotation Yrotation
            JOINT RightArmRoll
            {
              OFFSET 0 6.50617 0
              CHANNELS 3 Zrotation Xrotation Yrotation
              JOINT RightForeArm
              {
                OFFSET 0 18.9501 0
                CHANNELS 3 Zrotation Xrotation Yrotation
                JOINT RightForeArmRoll
                {
                  OFFSET 0 7.30093 0
                  CHANNELS 3 Zrotation Xrotation Yrotation
                  JOINT RightHand
                  {
                    OFFSET 0 14.6514 0
                    CHANNELS 3 Zrotation Xrotation Yrotation
                    End Site
                    {
                      OFFSET 0 0 0
                    }
                  }
                }
              }
            }
          }
        }
        JOINT LeftShoulder
        {
          OFFSET 3.83136 9.82631 -0.533491
          CHANNELS 3 Zrotation Xrotation Yrotation
          JOINT LeftArm
          {
            OFFSET 0 12.8881 0
            CHANNELS 3 Zrotation Xrotation Yrotation
            JOINT LeftArmRoll
            {
              OFFSET 0 6.50617 0
              CHANNELS 3 Zrotation Xrotation Yrotation
              JOINT LeftForeArm
              {
                OFFSET 0 18.9501 0
                CHANNELS 3 Zrotation Xrotation Yrotation
                JOINT LeftForeArmRoll
                {
                  OFFSET 0 7.30093 0
                  CHANNELS 3 Zrotation Xrotation Yrotation
                  JOINT LeftHand
                  {
                    OFFSET 0 14.6514 0
                    CHANNELS 3 Zrotation Xrotation Yrotation
                    End Site
                    {
                      OFFSET 0 0 0
                    }
                  }
                }
              }
            }
          }
        }
      }
    }
  }
  JOINT RightUpLeg
  {
    OFFSET -6.06837 -1.11278 -0.933477
    CHANNELS 3 Zrotation Xrotation Yrotation
    JOINT RightUpLegRoll
    {
      OFFSET 0 17.1796 0
      CHANNELS 3 Zrotation Xrotation Yrotation
      JOINT RightLeg
      {
        OFFSET 0 -21.2743 0
        CHANNELS 3 Zrotation Xrotation Yrotation
        JOINT RightLegRoll
        {
          OFFSET 0 21.3439 0
          CHANNELS 3 Zrotation Xrotation Yrotation
          JOINT RightFoot
          {
            OFFSET 0 17.7652 0
            CHANNELS 3 Zrotation Xrotation Yrotation
            JOINT RightToeBase
            {
              OFFSET 0 14.8508 0
              CHANNELS 3 Zrotation Xrotation Yrotation
              End Site
              {
                OFFSET 0.0062947 7.19214 -0.829005
              }
            }
          }
        }
      }
    }
  }
  JOINT LeftUpLeg
  {
    OFFSET 6.06837 -1.11278 -0.933477
    CHANNELS 3 Zrotation Xrotation Yrotation
    JOINT LeftUpLegRoll
    {
      OFFSET 0 17.1797 0
      CHANNELS 3 Zrotation Xrotation Yrotation
      JOINT LeftLeg
      {
        OFFSET 0 21.2742 0
        CHANNELS 3 Zrotation Xrotation Yrotation
        JOINT LeftLegRoll
        {
          OFFSET 0 21.5412 0
          CHANNELS 3 Zrotation Xrotation Yrotation
          JOINT LeftFoot
          {
            OFFSET 0 17.5679 0
            CHANNELS 3 Zrotation Xrotation Yrotation
            JOINT LeftToeBase
            {
              OFFSET 0 14.8508 0
              CHANNELS 3 Zrotation Xrotation Yrotation
              End Site
              {
                OFFSET -0.0282102 7.19214 -0.829005
              }
            }
          }
        }
      }
    }
  }
}
MOTION
Frames: 10
Frame Time: 0.00208333
52.6542 79.2086 11.0254 -1.72674 33.897 -3.25273 0.445498 1.13309 0.450575 0.88156 6.27194 0.835713 0.87338 7.91682 0.822046 -10.2755 -13.2057 0.652406 8.38079 0.582482 0.6501 55.6365 3.89982 2.9863 115.855 40.7339 -30.987 8.0321e-007 3.45359e-007 -4.63779e-006 25.5988 22.9096 -4.92165 1.26791e-006 -5.54925e-006 -2.99998 8.02904 -4.95114 0.697521 -53.3052 -2.54573 1.00574 -135.018 50.7914 21.5592 -4.11909e-007 4.69346e-008 2.46426e-006 -18.9859 0.13931 3.77786 2.41175e-006 1.47011e-006 3.3562 -8.02935 -4.95148 -0.69776 -168.758 78.2246 -12.5316 -180 7.01646e-015 179.518 175.285 45.1486 -179.555 -5.53619e-007 2.66625e-006 0.765811 -17.9162 66.7779 18.5694 8.13649 25.2326 -3.48774 -126.675 71.1001 -51.3688 4.54188e-006 -4.6773e-006 -0.367451 -10.1035 -50.751 -3.05187 1.71515e-006 -8.2969e-006 -0.657262 19.7565 69.0107 -20.4156 -8.13649 25.2327 3.48774 
52.6483 79.3106 11.1278 -1.73448 33.7616 -3.23292 0.445756 1.13076 0.448854 0.881385 6.26733 0.832071 0.873248 7.91222 0.818447 -10.1485 -13.2007 0.656527 8.27773 0.605899 0.6521 55.7763 3.96257 3.00281 115.801 40.7945 -30.7065 8.0321e-007 3.45359e-007 -4.63779e-006 25.535 22.4834 -4.80942 1.26791e-006 -5.54925e-006 -2.99998 8.02904 -4.95114 0.697521 -53.43 -2.46805 0.964742 -134.936 50.8539 21.0893 -4.11909e-007 4.69346e-008 2.46426e-006 -18.5389 0.136144 3.74713 2.41175e-006 1.47011e-006 3.35814 -8.02935 -4.95148 -0.69776 -168.998 77.9196 -12.2992 -180 7.01646e-015 179.517 175.314 44.9827 -179.57 -5.53619e-007 2.66626e-006 0.762411 -17.9034 66.7649 18.5596 8.13649 25.2326 -3.48774 -127.427 70.9069 -50.6067 4.54188e-006 -4.6773e-006 -0.370219 -10.0914 -50.5675 -3.03351 1.71515e-006 -8.2969e-006 -0.654213 19.746 69.0029 -20.4082 -8.13649 25.2327 3.48774 
52.636 79.3963 11.2114 -1.74227 33.6266 -3.2136 0.446225 1.12844 0.447381 0.881763 6.26275 0.828924 0.873665 7.90764 0.815324 -10.027 -13.2045 0.658868 8.17769 0.640261 0.652308 55.9096 4.02219 3.01824 115.755 40.8519 -30.4241 8.0321e-007 3.45359e-007 -4.63779e-006 25.4661 22.0733 -4.70264 1.26791e-006 -5.54925e-006 -2.99998 8.02904 -4.95114 0.697521 -53.5538 -2.39248 0.9252 -134.852 50.9118 20.6317 -4.11909e-007 4.69346e-008 2.46426e-006 -18.1112 0.133124 3.7165 2.41175e-006 1.47011e-006 3.35998 -8.02935 -4.95148 -0.69776 -169.222 77.6155 -12.0821 -180 7.01646e-015 179.516 175.342 44.8182 -179.586 -5.53619e-007 2.66626e-006 0.759006 -17.891 66.7521 18.55 8.13649 25.2326 -3.48774 -128.161 70.7113 -49.8617 4.54188e-006 -4.6773e-006 -0.372927 -10.0789 -50.3851 -3.01529 1.71515e-006 -8.2969e-006 -0.651163 19.736 68.9955 -20.4012 -8.13649 25.2327 3.48774 
52.616 79.4799 11.2967 -1.75008 33.4922 -3.19484 0.446939 1.12617 0.446197 0.882789 6.25821 0.826352 0.874724 7.9031 0.812757 -9.91245 -13.2178 0.659144 8.08183 0.686551 0.65045 56.0356 4.07799 3.03227 115.717 40.9057 -30.139 8.0321e-007 3.45359e-007 -4.63779e-006 25.3912 21.6816 -4.6019 1.26791e-006 -5.54925e-006 -2.99998 8.02904 -4.95114 0.697521 -53.6766 -2.31921 0.887229 -134.766 50.9645 20.1878 -4.11908e-007 4.69346e-008 2.46426e-006 -17.7053 0.130272 3.68659 2.41175e-006 1.47011e-006 3.36173 -8.02935 -4.95148 -0.69776 -169.432 77.3127 -11.8791 -180 7.01646e-015 179.515 175.371 44.6552 -179.601 -5.53619e-007 2.66626e-006 0.755595 -17.8788 66.7396 18.5408 8.13649 25.2326 -3.48774 -128.877 70.5136 -49.1337 4.54188e-006 -4.6773e-006 -0.375564 -10.0661 -50.2037 -2.99725 1.71515e-006 -8.2969e-006 -0.648106 19.7267 68.9887 -20.3949 -8.13649 25.2327 3.48774 
52.5454 79.5867 11.4114 -1.75787 33.3572 -3.17602 0.447808 1.12412 0.445199 0.884254 6.2541 0.824157 0.876219 7.899 0.810552 -9.79895 -13.244 0.657261 7.98444 0.748236 0.646406 56.1547 4.13087 3.04539 115.687 40.9569 -29.852 8.0321e-007 3.45359e-007 -4.63779e-006 25.3091 21.3071 -4.50623 1.26791e-006 -5.54925e-006 -2.99998 8.02904 -4.95114 0.697521 -53.7971 -2.24808 0.850677 -134.68 51.0142 19.7579 -4.11908e-007 4.69346e-008 2.46426e-006 -17.3179 0.127555 3.65517 2.41175e-006 1.47011e-006 3.36338 -8.02935 -4.95148 -0.69776 -169.633 77.0098 -11.6856 -180 7.01646e-015 179.514 175.4 44.4932 -179.616 -5.53619e-007 2.66626e-006 0.752182 -17.8668 66.7275 18.5318 8.13649 25.2326 -3.48774 -129.581 70.3131 -48.4175 4.54188e-006 -4.6773e-006 -0.378162 -10.0525 -50.0223 -2.9791 1.71515e-006 -8.2969e-006 -0.645048 19.718 68.9823 -20.3891 -8.13649 25.2327 3.48774 
52.5363 79.6698 11.4942 -1.76568 33.2207 -3.15661 0.448724 1.12241 0.444263 0.885898 6.2507 0.822097 0.877891 7.89559 0.808474 -9.68049 -13.2841 0.653477 7.87993 0.826722 0.640403 56.2688 4.18229 3.05831 115.66 41.0068 -29.5646 8.0321e-007 3.45359e-007 -4.63779e-006 25.22 20.9466 -4.4141 1.26791e-006 -5.54925e-006 -2.99998 8.02904 -4.95114 0.697521 -53.9143 -2.17874 0.815301 -134.598 51.0635 19.3412 -4.11909e-007 4.69346e-008 2.46426e-006 -16.9434 0.124926 3.61992 2.41175e-006 1.47011e-006 3.36494 -8.02935 -4.95148 -0.69776 -169.827 76.7054 -11.4983 -180 7.01646e-015 179.513 175.428 44.3315 -179.631 -5.53619e-007 2.66626e-006 0.748771 -17.8552 66.7156 18.523 8.13649 25.2326 -3.48774 -130.276 70.1092 -47.7093 4.54188e-006 -4.6773e-006 -0.380751 -10.0382 -49.8397 -2.96063 1.71515e-006 -8.2969e-006 -0.641998 19.7097 68.9762 -20.3835 -8.13649 25.2327 3.48774 
52.5767 79.732 11.5662 -1.77353 33.0831 -3.1368 0.4497 1.12097 0.4434 0.887736 6.24781 0.820192 0.879755 7.8927 0.806544 -9.55832 -13.3364 0.648039 7.76976 0.919904 0.632689 56.378 4.23241 3.07106 115.635 41.0555 -29.2774 8.0321e-007 3.45359e-007 -4.63779e-006 25.1248 20.5992 -4.32524 1.26791e-006 -5.54925e-006 -2.99998 8.02904 -4.95114 0.697521 -54.0286 -2.11113 0.781077 -134.519 51.1119 18.9367 -4.11909e-007 4.69346e-008 2.46426e-006 -16.5814 0.122383 3.58127 2.41175e-006 1.47011e-006 3.36639 -8.02935 -4.95148 -0.69776 -170.014 76.3999 -11.3182 -180 7.01645e-015 179.512 175.457 44.1702 -179.646 -5.53619e-007 2.66626e-006 0.74536 -17.8437 66.7039 18.5144 8.13649 25.2326 -3.48774 -130.96 69.9021 -47.011 4.54188e-006 -4.6773e-006 -0.383329 -10.0232 -49.6562 -2.94191 1.71515e-006 -8.2969e-006 -0.638957 19.7017 68.9704 -20.3782 -8.13649 25.2327 3.48774 
52.5413 79.8258 11.6616 -1.78147 32.9447 -3.11679 0.450748 1.1197 0.442623 0.889783 6.24527 0.818459 0.881828 7.89017 0.804779 -9.43371 -13.399 0.641192 7.65537 1.02567 0.623514 56.483 4.28136 3.08367 115.614 41.1031 -28.9906 8.0321e-007 3.45359e-007 -4.63779e-006 25.0241 20.2637 -4.2394 1.26791e-006 -5.54925e-006 -2.99998 8.02904 -4.95114 0.697521 -54.1403 -2.04518 0.747983 -134.441 51.1594 18.5433 -4.11909e-007 4.69346e-008 2.46426e-006 -16.2315 0.119923 3.53968 2.41175e-006 1.47011e-006 3.36775 -8.02935 -4.95148 -0.69776 -170.192 76.0936 -11.1463 -180 7.01645e-015 179.51 175.485 44.0093 -179.661 -5.53619e-007 2.66626e-006 0.741947 -17.8324 66.6923 18.506 8.13649 25.2326 -3.48774 -131.633 69.6918 -46.324 4.54188e-006 -4.6773e-006 -0.38589 -10.0078 -49.4722 -2.92304 1.71515e-006 -8.2969e-006 -0.635929 19.694 68.9647 -20.3732 -8.13649 25.2327 3.48774 
52.4895 79.9181 11.7561 -1.78955 32.8058 -3.09678 0.451879 1.11852 0.441942 0.892056 6.2429 0.816919 0.884124 7.8878 0.803201 -9.3079 -13.47 0.633182 7.53819 1.14193 0.613126 56.5841 4.32931 3.09617 115.594 41.1495 -28.7048 8.0321e-007 3.45359e-007 -4.63779e-006 24.9188 19.9392 -4.15636 1.26791e-006 -5.54925e-006 -2.99998 8.02904 -4.95114 0.697521 -54.25 -1.98082 0.715995 -134.363 51.2057 18.1601 -4.11909e-007 4.69346e-008 2.46426e-006 -15.8931 0.117545 3.49558 2.41175e-006 1.47011e-006 3.369 -8.02935 -4.95148 -0.69776 -170.362 75.7869 -10.9834 -180 7.01645e-015 179.509 175.514 43.8487 -179.675 -5.53619e-007 2.66626e-006 0.738531 -17.8212 66.6809 18.4976 8.13649 25.2326 -3.48774 -132.293 69.4787 -45.6499 4.54188e-006 -4.6773e-006 -0.388429 -9.99194 -49.2881 -2.90412 1.71515e-006 -8.2969e-006 -0.632913 19.6866 68.9592 -20.3683 -8.13649 25.2327 3.48774 
52.4801 80.0009 11.844 -1.7978 32.6668 -3.07697 0.453105 1.11733 0.441367 0.894569 6.24053 0.815592 0.886657 7.88543 0.801828 -9.18215 -13.5475 0.624255 7.41967 1.26655 0.601773 56.6817 4.3764 3.10859 115.576 41.1947 -28.4204 8.0321e-007 3.45359e-007 -4.63779e-006 24.8096 19.6245 -4.07587 1.26791e-006 -5.54925e-006 -2.99998 8.02904 -4.95114 0.697521 -54.358 -1.91796 0.685089 -134.285 51.2504 17.7862 -4.11909e-007 4.69346e-008 2.46426e-006 -15.5657 0.115245 3.4494 2.41175e-006 1.47011e-006 3.37016 -8.02935 -4.95148 -0.69776 -170.522 75.4802 -10.8302 -180 7.01645e-015 179.508 175.543 43.6885 -179.69 -5.53619e-007 2.66626e-006 0.735111 -17.8102 66.6696 18.4894 8.13649 25.2326 -3.48774 -132.937 69.2628 -44.9901 4.54188e-006 -4.6773e-006 -0.390941 -9.97587 -49.1041 -2.88521 1.71515e-006 -8.2969e-006 -0.629914 19.6793 68.9538 -20.3636 -8.13649 25.2327 3.48774 
